<svg width="83" height="26" viewBox="0 0 83 26" fill="none" xmlns="http://www.w3.org/2000/svg">
<path fill-rule="evenodd" clip-rule="evenodd" d="M23.7143 18.1422C23.7573 18.2491 23.8002 18.356 23.8432 18.46C24.1783 19.422 24.2814 20.332 24.0752 21.242C23.7916 23.166 22.5286 24.83 20.7242 25.558C20.0798 25.844 19.3581 25.974 18.6363 25.974C18.4301 25.974 18.1724 25.948 17.9661 25.922C17.1155 25.818 16.2391 25.532 15.3885 25.038C14.3575 24.44 13.3264 23.582 12.1922 22.334C11.0581 23.582 10.0528 24.44 8.99596 25.038C8.14534 25.532 7.26894 25.818 6.41832 25.922C6.21211 25.948 5.95435 25.974 5.74814 25.974C5.0264 25.974 4.33043 25.844 3.66025 25.558C1.88168 24.83 0.592856 23.192 0.309316 21.242C0.180434 20.306 0.28354 19.396 0.618633 18.434C0.747515 18.096 0.876397 17.784 1.00528 17.498C1.09931 17.2846 1.19334 17.0766 1.28493 16.874L1.28494 16.874L1.28496 16.8739C1.39421 16.6323 1.49999 16.3983 1.59814 16.172L1.62391 16.12C3.40248 12.22 5.33571 8.268 7.3205 4.368L7.39783 4.212C7.60404 3.822 7.81025 3.406 8.01646 2.99C8.27422 2.522 8.55776 2.028 8.94441 1.56C9.79503 0.572 10.955 0 12.2438 0C13.5068 0 14.6925 0.572 15.5174 1.612C15.8977 2.04357 16.1465 2.49725 16.3851 2.93227L16.4453 3.042C16.6516 3.458 16.8578 3.874 17.064 4.264L17.1413 4.42C19.1519 8.32 21.0593 12.272 22.8379 16.172L22.8637 16.198C22.9618 16.4242 23.0675 16.6582 23.1768 16.8998L23.1769 16.9C23.2685 17.1026 23.3625 17.3106 23.4565 17.524C23.5424 17.7147 23.6284 17.9285 23.7143 18.1422ZM43.7425 6.526C43.7425 7.462 42.995 8.216 42.0671 8.216C41.1391 8.216 40.3916 7.462 40.3916 6.526C40.3916 5.59 41.1134 4.836 42.0671 4.836C43.0208 4.862 43.7425 5.616 43.7425 6.526ZM36.8345 9.932V10.348C36.8345 10.348 36.0354 9.308 34.3342 9.308C31.5245 9.308 29.3335 11.466 29.3335 14.456C29.3335 17.42 31.4988 19.604 34.3342 19.604C36.0612 19.604 36.8345 18.538 36.8345 18.538V18.98C36.8345 19.188 36.9891 19.344 37.1953 19.344H39.2832V9.568H37.1953C36.9891 9.568 36.8345 9.75 36.8345 9.932ZM34.7466 17.264C35.6745 17.264 36.4478 16.77 36.8345 16.198V12.714C36.4736 12.168 35.6488 11.648 34.7466 11.648C33.0969 11.648 31.8339 12.688 31.8339 14.456C31.8339 16.224 33.0969 17.264 34.7466 17.264ZM75.2929 10.348C75.2929 10.348 76.0919 9.308 77.7932 9.308C80.577 9.308 82.768 11.492 82.768 14.456C82.768 17.42 80.577 19.604 77.7674 19.604C76.0661 19.604 75.2671 18.538 75.2671 18.538V18.98C75.2671 19.162 75.1124 19.344 74.9062 19.344H72.8183V4.862H75.2929V10.348ZM77.3807 17.238C76.427 17.238 75.6795 16.744 75.2929 16.172V12.688C75.6795 12.168 76.5043 11.622 77.3807 11.622C79.0304 11.622 80.2935 12.662 80.2935 14.43C80.2935 16.198 79.0304 17.238 77.3807 17.238ZM71.5295 19.37V13.546C71.5295 11.908 71.1944 10.972 70.318 10.244C69.5963 9.62 68.6941 9.308 67.6115 9.308C66.6578 9.308 65.704 9.594 64.9823 10.348V9.932C64.9823 9.75 64.8276 9.568 64.6214 9.568H62.6624V19.344H65.137V12.532C65.6267 11.96 66.4 11.57 67.1475 11.57C68.5394 11.57 69.055 12.22 69.055 13.832V19.37H71.5295ZM40.8298 9.568H43.3043V19.344H40.8298V9.568ZM56.6565 9.308C54.9553 9.308 54.1562 10.348 54.1562 10.348V4.862H51.6817V19.344H53.7696C53.9758 19.344 54.1304 19.162 54.1304 18.98V18.538C54.1304 18.538 54.9295 19.604 56.6307 19.604C59.4404 19.604 61.6314 17.42 61.6314 14.456C61.6571 11.492 59.4661 9.308 56.6565 9.308ZM54.1562 16.172C54.5429 16.744 55.2904 17.238 56.2441 17.238C57.8938 17.238 59.1568 16.198 59.1568 14.43C59.1568 12.662 57.8938 11.622 56.2441 11.622C55.3677 11.622 54.5429 12.168 54.1562 12.688V16.172ZM49.5422 9.308C50.2897 9.308 50.6764 9.438 50.6764 9.438V11.752C50.6764 11.752 48.6143 11.05 47.3255 12.532V19.37H44.8509V9.568H46.9388C47.145 9.568 47.2997 9.75 47.2997 9.932V10.348C47.7637 9.802 48.7689 9.308 49.5422 9.308ZM12.218 19.812C10.8261 18.044 9.92391 16.38 9.6146 14.976C9.48571 14.378 9.45994 13.858 9.53727 13.39C9.58882 12.974 9.74348 12.61 9.94969 12.298C10.4394 11.596 11.2643 11.154 12.218 11.154C13.1717 11.154 14.0224 11.57 14.4863 12.298C14.6925 12.61 14.8472 12.974 14.8988 13.39C14.9761 13.858 14.9503 14.404 14.8214 14.976C14.5121 16.354 13.6099 18.018 12.218 19.812ZM20.1571 24.076C21.4202 23.556 22.3224 22.386 22.5028 21.034C22.6059 20.358 22.5286 19.708 22.3224 19.032C22.2686 18.8513 22.19 18.6706 22.1038 18.4725C22.0659 18.3855 22.0266 18.2952 21.9873 18.2C21.8842 17.992 21.7875 17.771 21.6908 17.55C21.5942 17.329 21.4975 17.108 21.3944 16.9V16.874C19.6158 13 17.7084 9.048 15.7494 5.174L15.672 5.018C15.5689 4.823 15.4658 4.6215 15.3627 4.42C15.2596 4.2185 15.1565 4.017 15.0534 3.822C14.8472 3.406 14.6152 3.016 14.3317 2.678C13.7904 2.054 13.0686 1.716 12.2696 1.716C11.4705 1.716 10.7488 2.054 10.2075 2.678C9.92391 3.016 9.69193 3.406 9.48571 3.822C9.3826 4.01701 9.2795 4.21851 9.17639 4.42002C9.07328 4.62151 8.97018 4.82301 8.86708 5.018L8.78975 5.174C6.80497 9.022 4.89751 12.974 3.11894 16.848L3.09317 16.9C2.88696 17.342 2.68074 17.784 2.50031 18.2C2.46099 18.2952 2.42168 18.3855 2.38382 18.4725C2.29759 18.6706 2.21896 18.8513 2.16522 19.032C1.90745 19.76 1.8559 20.41 1.93323 21.06C2.11366 22.412 3.01584 23.582 4.27888 24.102C4.87174 24.336 5.54192 24.44 6.23789 24.362C6.8823 24.284 7.52671 24.076 8.19689 23.686C9.12484 23.166 10.0786 22.36 11.1354 21.164C9.45994 19.058 8.4031 17.108 8.01646 15.392C7.81025 14.612 7.78447 13.858 7.88758 13.182C7.99068 12.532 8.22267 11.934 8.58354 11.414C9.38261 10.27 10.723 9.568 12.218 9.568C13.713 9.568 15.0534 10.244 15.8525 11.414C16.2134 11.934 16.4453 12.532 16.5484 13.182C16.6258 13.858 16.6 14.586 16.4196 15.392C16.0329 17.108 15.0019 19.032 13.3006 21.138C14.3832 22.334 15.3112 23.14 16.2391 23.66C16.9093 24.05 17.5537 24.258 18.1981 24.336C18.8683 24.414 19.5385 24.336 20.1571 24.076Z" fill="#979797"/>
</svg>
