<svg width="77" height="26" viewBox="0 0 77 26" fill="none" xmlns="http://www.w3.org/2000/svg">
<path fill-rule="evenodd" clip-rule="evenodd" d="M26.6648 20.0373C30.1612 20.0373 33.0102 17.3188 33.0102 13.6297C33.0102 9.91461 30.1612 7.22217 26.6648 7.22217C23.1684 7.22217 20.3194 9.91461 20.3194 13.6297C20.3194 17.3188 23.1684 20.0373 26.6648 20.0373ZM26.6648 9.74706C28.5813 9.74706 30.2325 11.3244 30.2325 13.6297C30.2325 15.9091 28.5813 17.5124 26.6648 17.5124C24.7484 17.5124 23.0971 15.9119 23.0971 13.6297C23.0971 11.3244 24.7484 9.74706 26.6648 9.74706Z" fill="#979797"/>
<path fill-rule="evenodd" clip-rule="evenodd" d="M40.3537 20.0373C43.8501 20.0373 46.6991 17.3188 46.6991 13.6297C46.6991 9.91461 43.8501 7.22217 40.3537 7.22217C36.8573 7.22217 34.0083 9.9175 34.0083 13.6297C34.0083 17.3188 36.8573 20.0373 40.3537 20.0373ZM40.3537 9.74706C42.2702 9.74706 43.9214 11.3244 43.9214 13.6297C43.9214 15.9091 42.2702 17.5124 40.3537 17.5124C38.4373 17.5124 36.786 15.9119 36.786 13.6297C36.786 11.3244 38.4373 9.74706 40.3537 9.74706Z" fill="#979797"/>
<path fill-rule="evenodd" clip-rule="evenodd" d="M59.8176 19.1128V7.61217H57.1796V8.65506H57.0827C56.4581 7.90106 55.2603 7.22217 53.7517 7.22217C50.589 7.22217 47.6915 10.0359 47.6915 13.6528C47.6915 17.2437 50.589 20.0344 53.7517 20.0344C55.2632 20.0344 56.461 19.3555 57.0827 18.5784H57.1796V19.4999C57.1796 21.9526 55.8877 23.2555 53.803 23.2555C52.1033 23.2555 51.0481 22.0248 50.6175 20.9819L48.1991 22.0017C48.895 23.7004 50.7401 25.7775 53.8059 25.7775C57.0627 25.7775 59.8176 23.8448 59.8176 19.1128ZM53.9998 9.74706C55.8906 9.74706 57.3764 11.3966 57.3764 13.6528C57.3764 15.8859 55.8906 17.5124 53.9998 17.5124C52.0834 17.5124 50.4778 15.8859 50.4778 13.6528C50.4778 11.3966 52.0834 9.74706 53.9998 9.74706Z" fill="#979797"/>
<path fill-rule="evenodd" clip-rule="evenodd" d="M64.1667 0.866699V19.6445H61.4574V0.866699H64.1667Z" fill="#979797"/>
<path fill-rule="evenodd" clip-rule="evenodd" d="M76.8802 17.1946L74.7242 15.7386C74.0056 16.8075 73.0245 17.5123 71.61 17.5123C70.1983 17.5123 69.1916 16.8566 68.5443 15.571L77 12.0235L76.712 11.2955C76.1872 9.86546 74.5816 7.21924 71.2992 7.21924C68.0395 7.21924 65.3331 9.81635 65.3331 13.6268C65.3331 17.2206 68.0167 20.0343 71.61 20.0343C74.5075 20.0343 76.1844 18.2375 76.8802 17.1946ZM73.7403 11.0557L68.088 13.4332C68.0167 10.9603 69.9816 9.69791 71.3933 9.69791C72.4941 9.69791 73.4295 10.2555 73.7403 11.0557Z" fill="#979797"/>
<path fill-rule="evenodd" clip-rule="evenodd" d="M10.0642 11.9629V9.24441H19.1074C19.1958 9.71819 19.2414 10.2786 19.2414 10.8853C19.2414 12.9249 18.691 15.4469 16.9172 17.2437C15.1918 19.0637 12.9873 20.0344 10.067 20.0344C4.65422 20.0344 0.102667 15.5682 0.102667 10.0851C0.102667 4.60196 4.65422 0.135742 10.067 0.135742C13.0615 0.135742 15.1947 1.32596 16.7974 2.8773L14.9038 4.79552C13.7545 3.70352 12.1974 2.85419 10.0642 2.85419C6.11152 2.85419 3.02011 6.08108 3.02011 10.0851C3.02011 14.0891 6.11152 17.316 10.0642 17.316C12.628 17.316 14.0881 16.2731 15.0236 15.3255C15.7821 14.5571 16.2812 13.4593 16.478 11.96L10.0642 11.9629Z" fill="#979797"/>
</svg>
