<svg width="52" height="52" viewBox="0 0 52 52" fill="none" xmlns="http://www.w3.org/2000/svg">
<path d="M26 52C40.3594 52 52 40.3594 52 26C52 11.6406 40.3594 0 26 0C11.6406 0 0 11.6406 0 26C0 40.3594 11.6406 52 26 52Z" fill="#CFCFCF"/>
<path fill-rule="evenodd" clip-rule="evenodd" d="M20.5 18.1094L34.4269 25.073C34.9388 25.3289 35.1463 25.9514 34.8904 26.4633C34.7901 26.6639 34.6275 26.8265 34.4269 26.9268L20.5 33.8904C19.9881 34.1463 19.3656 33.9388 19.1096 33.4269C18.9606 33.1288 18.964 32.7773 19.1187 32.4822L21.9745 27.0362L29.0265 25.9999L21.9745 24.9636L19.1187 19.5176C18.8529 19.0107 19.0484 18.3843 19.5552 18.1185C19.8504 17.9638 20.2019 17.9604 20.5 18.1094Z" fill="white"/>
</svg>
